<?xml version="1.0" standalone="no"?>
<!DOCTYPE svg PUBLIC "-//W3C//DTD SVG 20010904//EN"
 "http://www.w3.org/TR/2001/REC-SVG-20010904/DTD/svg10.dtd">
<svg version="1.0" xmlns="http://www.w3.org/2000/svg"
 width="580.000000pt" height="571.000000pt" viewBox="0 0 580.000000 571.000000"
 preserveAspectRatio="xMidYMid meet">

<g transform="translate(0.000000,571.000000) scale(0.100000,-0.100000)"
fill="#000000" stroke="none">
<path d="M0 5402 l0 -309 31 -1 c30 -1 69 -26 69 -44 0 -5 -13 -7 -30 -3 -20
4 -30 3 -30 -5 0 -7 -8 -10 -20 -7 -20 5 -20 0 -20 -668 0 -660 0 -673 20
-678 10 -3 25 1 31 9 8 10 22 12 44 8 19 -3 35 -1 39 5 4 6 21 11 38 11 44 0
91 52 106 119 12 51 11 52 -24 103 -44 62 -40 88 20 129 64 43 119 31 184 -39
35 -38 37 -52 21 -134 -10 -47 -9 -61 6 -91 22 -48 83 -117 103 -117 12 0 11
-5 -8 -25 -13 -14 -18 -25 -12 -25 21 0 139 57 174 83 29 22 41 25 98 22 36
-2 82 -8 103 -13 46 -12 42 -17 104 161 24 72 67 174 95 226 27 53 43 89 35
81 -8 -8 -49 -55 -92 -105 -43 -49 -90 -101 -104 -115 -59 -58 -192 -173 -195
-169 -2 2 23 33 56 69 73 80 231 315 379 566 62 104 126 212 143 240 62 104
150 230 198 287 28 31 46 57 41 57 -5 0 -13 -4 -18 -9 -6 -5 -50 -26 -100 -46
-49 -20 -112 -48 -140 -62 -45 -23 -161 -75 -273 -124 -66 -29 -49 -8 24 30
176 91 650 402 793 520 198 163 418 290 631 364 8 3 -555 6 -1252 6 l-1268 1
0 -308z m794 -107 c12 -8 29 -34 36 -56 13 -39 13 -42 -11 -60 -33 -25 -40
-24 -72 12 -26 30 -34 69 -21 103 8 20 38 20 68 1z m132 -1138 c36 23 37 13 3
-38 -53 -83 -133 -156 -194 -179 -20 -8 -29 -6 -46 11 l-21 21 23 12 c18 9 23
19 21 38 -2 18 7 42 30 72 36 49 70 70 99 61 10 -4 27 -2 36 4 13 7 19 6 21
-4 3 -12 7 -12 28 2z m-226 -151 c0 -3 -4 -8 -10 -11 -5 -3 -10 -1 -10 4 0 6
5 11 10 11 6 0 10 -2 10 -4z"/>
<path d="M2780 5697 l-55 -11 52 -7 c29 -4 59 -9 68 -12 8 -4 85 0 172 8 87 8
194 15 238 15 44 0 87 5 95 10 21 13 -499 11 -570 -3z"/>
<path d="M4334 5670 c126 -46 187 -79 306 -163 316 -225 567 -538 704 -879 41
-102 96 -287 101 -340 2 -21 19 -63 37 -95 18 -32 40 -74 49 -93 48 -104 60
-133 56 -137 -9 -8 -164 314 -170 353 -9 52 -150 381 -212 494 -147 264 -346
478 -550 590 l-40 21 40 -38 c50 -47 142 -153 173 -199 12 -19 27 -34 32 -34
6 0 10 -5 10 -12 0 -7 -44 31 -97 85 -197 195 -328 287 -408 287 -37 0 -37 0
-31 -35 9 -48 -10 -46 -56 7 -26 30 -37 38 -38 26 0 -10 -4 -18 -10 -18 -5 0
-10 5 -10 11 0 7 -10 9 -26 6 -16 -3 -45 6 -82 26 l-57 31 58 -59 c76 -79 75
-104 -4 -71 -45 18 -207 58 -220 54 -5 -2 7 -12 28 -23 37 -20 67 -43 69 -54
0 -3 5 -15 9 -25 5 -13 5 -21 -2 -23 -6 -2 -9 -12 -6 -22 2 -10 -23 8 -57 41
-35 32 -65 57 -67 54 -3 -3 17 -35 45 -72 50 -67 55 -89 24 -97 -13 -4 -12 -5
3 -6 12 0 26 4 33 11 9 9 12 8 12 -4 0 -11 -11 -17 -35 -20 -23 -3 -35 0 -35
8 0 18 -24 23 -43 9 -9 -7 -17 -20 -17 -30 0 -17 -1 -17 -18 -2 -10 10 -28 17
-39 17 -18 0 -20 -6 -19 -60 0 -37 -5 -65 -13 -72 -11 -11 -12 -9 -6 11 5 15
3 21 -3 17 -10 -6 -23 41 -38 134 -11 70 -20 43 -17 -52 2 -51 -1 -102 -6
-113 -6 -11 -11 -31 -13 -45 -2 -14 -13 -30 -28 -37 -14 -7 -19 -13 -12 -13 7
0 10 -5 7 -10 -5 -8 -11 -7 -21 1 -8 7 -28 13 -43 13 -23 1 -27 -3 -23 -18 3
-12 1 -17 -6 -12 -13 8 -23 -7 -32 -48 -4 -20 -9 10 -14 89 -8 145 4 244 45
355 16 45 27 85 24 89 -2 5 -17 6 -32 4 -26 -4 -26 -3 -10 10 26 22 21 27 -25
26 -24 -1 -35 -3 -25 -6 10 -3 14 -9 10 -16 -4 -6 -8 -48 -8 -92 -1 -44 -11
-132 -22 -195 -25 -138 -43 -311 -50 -480 -2 -68 -9 -132 -14 -141 -13 -25
-11 -29 8 -22 14 6 15 0 8 -48 -15 -104 -12 -146 24 -379 5 -30 32 -124 61
-208 54 -162 63 -229 17 -132 -14 30 -38 96 -52 145 -15 50 -36 119 -47 155
-10 36 -25 94 -32 130 -7 36 -18 75 -24 87 -7 12 -12 30 -12 41 0 27 -27 36
-35 11 -14 -42 -25 -15 -24 59 l0 77 25 -50 24 -50 -4 70 c-3 39 -14 144 -26
235 -24 185 -23 400 3 500 8 30 17 71 21 90 5 35 5 35 -9 10 -23 -40 -71 -205
-96 -334 -18 -88 -49 -306 -64 -446 -8 -74 -19 -162 -25 -195 -27 -150 -108
-477 -122 -490 -7 -7 -8 0 -5 20 4 17 13 68 21 115 9 46 18 91 22 100 5 14 17
100 46 348 10 86 9 105 -2 112 -10 6 -11 25 -7 77 8 76 41 255 51 271 13 22
57 276 55 321 -1 20 -2 21 -6 6 -2 -11 -8 -29 -12 -40 -15 -37 -41 -131 -41
-151 0 -21 -28 -140 -72 -307 -21 -78 -37 -121 -49 -127 -14 -8 -16 -6 -13 13
2 12 2 16 -2 10 -3 -7 -11 -13 -18 -13 -8 0 -12 -16 -11 -48 1 -38 -2 -49 -14
-49 -9 0 -20 5 -24 11 -5 7 -7 3 -5 -9 2 -11 11 -20 19 -19 11 1 15 -9 15 -33
0 -20 -4 -32 -11 -29 -11 4 -12 -76 0 -122 8 -34 -5 -110 -22 -128 -9 -9 -17
-42 -20 -82 -7 -91 -70 -313 -94 -330 -23 -16 -25 -42 -4 -42 11 0 12 -6 6
-22 -4 -13 -11 -45 -15 -71 -4 -27 -16 -67 -26 -90 l-19 -42 6 170 c3 94 11
202 19 240 8 39 17 111 19 160 l5 90 -15 -50 c-8 -27 -19 -72 -25 -98 -5 -26
-20 -85 -33 -130 -14 -45 -32 -113 -40 -152 -38 -161 -86 -373 -95 -415 -7
-35 -10 -3 -11 145 -1 220 14 483 34 605 19 107 20 149 3 132 -12 -12 -21 -58
-41 -222 -13 -103 -14 -104 -21 -55 -9 57 -15 80 -20 74 -7 -7 -35 -162 -41
-231 -4 -38 -11 -68 -17 -68 -7 0 -8 57 -2 183 9 198 9 376 0 385 -11 10 -17
-6 -27 -74 -5 -38 -15 -98 -21 -134 -6 -36 -11 -154 -11 -262 0 -109 -1 -198
-3 -198 -1 0 -9 7 -18 15 -13 13 -14 9 -9 -43 7 -78 94 -441 127 -532 7 -19
16 -53 20 -75 7 -38 5 -37 -27 25 -45 87 -98 257 -147 474 -48 212 -65 404
-58 656 3 91 3 154 0 140 -2 -14 -7 -29 -12 -35 -4 -5 -11 -89 -14 -185 -4
-96 -9 -204 -13 -240 -12 -123 -23 -17 -18 175 5 184 8 233 26 390 10 93 59
311 85 378 17 45 17 50 3 41 -24 -14 -50 -99 -99 -319 -12 -55 -26 -111 -31
-125 -13 -40 -77 -445 -90 -573 -7 -64 -14 -115 -17 -112 -3 2 -8 33 -12 67
l-7 63 -2 -64 c-1 -61 -2 -63 -23 -57 -13 3 -60 6 -105 6 l-82 0 6 33 c3 17
16 55 29 82 25 55 65 150 99 235 14 37 20 68 17 95 l-4 40 26 -24 c15 -14 30
-39 35 -55 9 -29 9 -27 10 19 2 53 28 222 54 340 33 147 99 331 163 454 36 67
64 125 61 127 -18 18 -113 -163 -226 -431 -12 -27 -26 -58 -32 -68 -50 -90
-69 -132 -88 -192 -12 -39 -27 -83 -32 -100 -16 -46 -56 -175 -70 -228 -11
-40 -16 -45 -25 -32 -10 14 -12 14 -18 0 -11 -29 -26 -15 -26 25 0 22 -4 40
-8 40 -16 0 -59 -161 -83 -304 -5 -33 -11 -62 -14 -64 -3 -3 -16 0 -29 6 -18
8 -25 8 -29 -1 -2 -7 -3 -88 -2 -182 2 -144 0 -165 -10 -140 -7 17 -18 84 -25
150 -15 136 -4 323 30 495 24 127 30 179 20 185 -5 3 -15 -13 -21 -35 -16 -53
-31 -32 -23 30 4 25 3 41 -2 37 -18 -17 -35 -107 -45 -227 -5 -69 -14 -138
-19 -154 -12 -36 -13 -357 -1 -411 5 -22 12 -76 15 -120 l5 -80 -24 95 c-51
195 -58 261 -59 510 0 134 5 261 12 295 20 107 51 249 61 285 6 19 10 44 10
55 -1 20 -1 20 -6 0 -3 -11 -9 -25 -14 -30 -9 -12 -27 -78 -39 -145 -4 -25
-15 -74 -23 -110 -9 -36 -19 -132 -22 -215 -4 -82 -13 -182 -20 -220 -8 -39
-19 -153 -25 -255 -6 -102 -17 -219 -25 -260 -8 -41 -14 -94 -13 -118 1 -24
-3 -46 -10 -50 -16 -10 -39 -108 -62 -254 -10 -68 -19 -120 -19 -117 -1 4 -9
44 -18 90 -27 138 -21 398 13 579 13 66 -10 19 -52 -108 -74 -221 -144 -417
-144 -404 -1 46 78 506 100 577 13 45 58 358 76 525 l3 35 -9 -30 c-34 -109
-61 -261 -66 -363 -3 -77 -11 -119 -45 -222 -16 -51 -17 -53 -18 -20 0 69 33
321 63 470 21 108 43 184 75 254 35 77 64 163 59 177 -4 13 -18 -15 -47 -91
-11 -30 -34 -91 -50 -135 -36 -94 -115 -374 -130 -460 -11 -59 -70 -224 -71
-196 0 8 9 45 21 83 11 39 18 72 16 75 -3 2 -15 0 -26 -6 -11 -7 -36 -10 -54
-8 -36 4 -81 30 -70 40 3 4 1 7 -5 7 -7 0 -12 -6 -12 -12 0 -20 -34 -98 -42
-98 -5 0 -8 16 -8 35 0 31 -3 35 -27 36 -37 1 -63 6 -88 17 -57 26 -92 32
-124 21 -17 -6 -35 -19 -40 -28 -9 -16 -1 -119 14 -188 16 -73 -17 -111 -104
-117 -47 -3 -56 -1 -82 25 -16 16 -35 30 -42 31 -44 5 -67 18 -67 36 0 12 -7
9 -28 -11 -16 -16 -39 -27 -55 -27 -19 0 -25 -4 -21 -15 7 -16 -11 -21 -21 -6
-3 5 -16 -1 -30 -15 -13 -13 -29 -24 -35 -24 -5 0 -10 -7 -10 -15 0 -8 5 -15
10 -15 6 0 10 -5 10 -11 0 -6 -6 -9 -12 -6 -7 2 -27 -1 -45 -8 -26 -11 -35
-11 -51 1 -17 12 -22 12 -33 -2 -7 -8 -18 -13 -26 -10 -11 5 -13 -126 -13
-767 l0 -772 65 -23 c35 -13 69 -21 75 -17 5 3 10 28 10 55 l0 48 40 -5 c76
-11 94 39 30 84 -63 45 -63 71 1 103 52 27 62 26 123 -15 29 -19 58 -35 65
-35 8 0 9 -5 1 -19 -10 -20 -4 -51 10 -51 4 0 17 8 28 19 24 20 29 47 10 54
-7 2 -9 8 -5 13 8 9 47 -30 47 -46 0 -4 -13 -21 -29 -36 -16 -16 -31 -42 -33
-59 -2 -23 -10 -32 -34 -40 -27 -9 -30 -13 -21 -33 11 -25 15 -26 51 -12 34
13 42 -3 19 -41 -17 -30 -17 -31 1 -45 11 -8 32 -14 47 -14 37 0 59 -9 59 -26
0 -19 40 -54 63 -54 10 0 32 -11 49 -25 16 -14 38 -25 48 -25 25 0 33 -15 21
-38 -7 -13 -7 -22 1 -30 8 -8 2 -16 -22 -29 -19 -10 -44 -27 -56 -39 -12 -11
-30 -19 -40 -18 -10 2 -34 -1 -54 -5 -30 -6 -35 -10 -32 -33 3 -21 -3 -28 -35
-41 -21 -8 -54 -13 -74 -11 -25 3 -38 0 -42 -10 -3 -8 -26 -24 -52 -37 -41
-20 -49 -21 -68 -9 -26 16 -53 21 -132 25 -33 2 -77 6 -97 10 l-38 8 0 -190 0
-190 27 -12 c22 -10 24 -14 12 -22 -12 -7 -11 -9 4 -9 9 0 17 -4 17 -10 0 -5
-5 -10 -11 -10 -5 0 -7 -5 -4 -10 3 -6 16 -10 29 -10 13 0 33 -9 46 -20 13
-11 31 -20 41 -20 19 0 75 -77 64 -88 -3 -3 -22 -5 -42 -4 -19 2 -46 -4 -59
-13 -13 -8 -45 -15 -74 -15 l-50 0 0 -235 0 -235 701 0 701 0 -31 35 c-17 20
-31 40 -31 46 0 5 -11 15 -25 21 -18 8 -25 19 -25 39 0 34 20 42 98 39 81 -3
82 -3 93 30 9 26 16 30 47 31 21 1 42 0 47 -1 6 -1 33 -5 60 -9 l50 -6 3 -43
3 -44 35 6 c43 9 43 -1 1 -42 -30 -29 -35 -31 -46 -18 -11 14 -16 14 -41 1
-27 -14 -60 -55 -60 -75 0 -6 67 -10 194 -10 159 0 196 3 206 15 15 18 6 45
-14 45 -8 0 -21 8 -28 19 -7 10 -26 25 -43 34 -50 27 -77 55 -85 89 -5 18 -12
43 -15 55 -5 16 3 32 35 66 39 44 41 48 42 114 1 56 -3 74 -23 105 -28 42 -35
46 -108 58 -71 12 -140 -3 -182 -41 -73 -65 -227 -61 -258 7 -6 14 -7 24 -1
24 5 0 12 11 16 24 3 13 14 26 25 29 10 3 22 13 25 24 3 10 11 28 16 40 8 16
7 30 -2 52 -7 18 -9 42 -4 63 4 18 6 64 5 103 -1 57 -6 76 -28 107 -14 21 -29
38 -33 38 -4 0 -22 15 -40 34 -24 24 -34 44 -36 72 -2 22 -5 50 -7 64 -1 14 3
35 10 46 11 17 11 27 3 46 -9 19 -7 37 8 84 25 75 22 106 -17 147 -17 17 -43
44 -57 60 -22 22 -35 27 -75 27 -27 0 -58 -5 -68 -12 -15 -9 -25 -7 -55 11
-20 13 -36 27 -36 31 0 5 -19 10 -42 12 -62 4 -58 31 6 40 26 4 54 9 62 12 7
3 20 -4 27 -15 15 -21 42 -17 51 7 3 9 10 13 14 10 5 -3 22 -2 37 3 22 5 35 3
52 -13 13 -11 21 -26 18 -33 -9 -26 26 -25 88 3 87 39 364 86 519 88 64 0 115
0 114 -1 -7 -7 105 -113 134 -128 44 -22 63 -44 101 -124 20 -43 31 -80 31
-115 1 -28 8 -62 16 -76 22 -36 87 -95 125 -113 55 -27 161 -146 176 -197 7
-25 21 -60 32 -78 21 -37 24 -67 8 -78 -6 -3 -9 -17 -6 -31 3 -15 -1 -27 -9
-30 -8 -3 -14 -15 -14 -27 0 -11 -7 -34 -15 -50 -22 -41 -19 -50 20 -80 23
-18 35 -35 35 -51 0 -13 11 -36 25 -49 19 -19 23 -30 17 -43 -5 -10 -19 -40
-32 -68 -13 -27 -53 -84 -88 -125 -57 -67 -94 -127 -104 -169 -2 -8 -16 -27
-33 -42 -16 -15 -47 -42 -68 -62 -21 -19 -52 -39 -70 -45 l-32 -10 31 -1 c24
-1 44 10 80 42 56 50 120 90 134 85 11 -3 -74 -96 -105 -115 -16 -9 44 -12
282 -12 172 -1 304 3 307 8 4 5 13 72 22 148 8 76 20 156 26 177 l10 40 18
-30 c26 -41 50 -168 50 -264 l0 -80 1154 0 c655 0 1157 4 1160 9 3 5 45 12 93
16 101 8 125 17 68 26 -32 5 -25 7 35 8 89 3 83 7 -23 16 l-77 7 30 28 c16 15
30 34 30 42 0 8 10 24 23 36 30 28 114 30 155 5 73 -46 102 -75 102 -102 0
-20 -5 -28 -17 -28 -10 1 -43 -1 -73 -2 l-55 -3 39 -9 c61 -14 57 -22 -7 -16
-34 3 -55 2 -52 -4 4 -5 42 -9 86 -9 46 0 79 -4 79 -10 0 -5 11 -10 25 -10
l25 0 0 2855 0 2855 -787 -1 -788 0 109 -39z m-294 -284 c0 -2 -7 -6 -15 -10
-8 -3 -15 -1 -15 4 0 6 7 10 15 10 8 0 15 -2 15 -4z m202 -233 c68 -82 138
-189 138 -212 0 -7 -36 32 -79 87 -99 125 -141 183 -141 194 0 21 22 2 82 -69z
m42 -548 c13 -55 27 -134 31 -175 3 -41 10 -97 15 -125 18 -103 43 -306 37
-311 -6 -6 -27 86 -27 124 -1 23 -2 25 -11 10 -5 -10 -14 -18 -18 -18 -12 0
-44 146 -36 169 8 28 23 27 28 -1 2 -13 5 -6 6 17 1 45 -32 248 -54 336 -8 31
-15 72 -14 90 0 33 1 33 10 9 6 -13 21 -70 33 -125z m-723 103 c10 -14 18 -18
19 -10 0 27 20 0 20 -28 0 -22 -4 -28 -15 -24 -9 4 -18 -2 -23 -17 -11 -30
-21 -13 -29 51 -6 55 -1 61 28 28z m400 -471 c3 -145 -11 -486 -21 -492 -4 -2
-5 74 -2 169 5 175 -1 251 -19 241 -5 -4 -9 8 -9 25 0 18 4 29 10 25 11 -7 13
27 10 162 -1 50 2 102 6 115 10 29 21 -73 25 -245z m86 181 c-3 -8 -6 -5 -6 6
-1 11 2 17 5 13 3 -3 4 -12 1 -19z m-287 -123 c0 -70 9 -107 21 -99 5 3 9 -7
9 -22 0 -15 -3 -24 -7 -20 -4 4 -15 -8 -25 -26 -17 -33 -17 -31 -16 137 0 117
3 158 9 130 4 -22 8 -67 9 -100z m316 27 c4 -31 13 -73 20 -92 l13 -35 0 45 1
45 18 -28 c21 -31 32 -26 32 15 0 50 16 30 28 -36 14 -76 16 -144 3 -130 -5 5
-11 18 -13 28 -5 30 -25 30 -36 -1 l-10 -28 -14 34 -15 33 -6 -38 c-3 -22 -10
-79 -14 -129 -8 -89 -8 -88 -14 90 -4 99 -10 207 -14 239 -6 42 -5 57 3 52 6
-3 14 -32 18 -64z m-420 -70 c12 -70 9 -95 -10 -89 -13 4 -32 128 -22 152 10
28 20 9 32 -63z m-398 41 c5 -10 15 -88 21 -173 7 -85 16 -198 20 -250 4 -52
7 -96 6 -98 -4 -5 -210 22 -218 28 -5 4 1 26 12 48 11 22 25 62 31 89 6 26 17
73 26 103 8 30 21 78 29 105 49 177 53 186 73 148z m585 -50 c7 -46 3 -113 -8
-115 -6 -2 -11 27 -13 70 -3 70 12 101 21 45z m404 -45 c-2 -13 -4 -3 -4 22 0
25 2 35 4 23 2 -13 2 -33 0 -45z m-240 -40 c-2 -18 -4 -4 -4 32 0 36 2 50 4
33 2 -18 2 -48 0 -65z m-1897 4 c0 -13 -4 -20 -10 -17 -5 3 -10 21 -10 38 0
24 3 28 10 17 5 -8 10 -25 10 -38z m1378 15 c2 -10 -3 -17 -12 -17 -10 0 -16
9 -16 21 0 24 23 21 28 -4z m-104 -109 c19 -71 66 -199 97 -267 22 -46 39 -86
39 -89 0 -6 -47 4 -105 24 l-51 17 1 163 c0 90 4 164 8 164 4 0 9 -6 11 -12z
m2080 -298 l-8 -135 -8 170 c-4 94 -5 190 -1 215 6 44 7 43 16 -35 4 -44 5
-141 1 -215z m150 164 c9 -24 2 -26 -12 -4 -7 11 -8 20 -3 20 5 0 12 -7 15
-16z m-3687 -51 c-3 -10 -5 -2 -5 17 0 19 2 27 5 18 2 -10 2 -26 0 -35z m3757
-59 c3 -8 2 -12 -4 -9 -6 3 -10 10 -10 16 0 14 7 11 14 -7z m-2677 -26 c-3 -7
-5 -2 -5 12 0 14 2 19 5 13 2 -7 2 -19 0 -25z m-763 -203 c14 -104 30 -242 36
-305 15 -166 20 -201 30 -195 5 3 7 -12 5 -32 -3 -21 2 -9 11 27 13 54 14 82
5 163 -13 118 -14 180 -2 173 4 -3 11 -24 15 -46 6 -36 72 -217 112 -308 49
-110 101 -213 132 -262 30 -47 36 -52 42 -35 4 11 5 45 2 76 -7 86 50 467 78
518 8 16 16 -29 26 -161 3 -49 10 -88 15 -88 5 0 9 31 9 69 0 88 32 258 71
376 16 50 35 108 43 130 9 28 19 41 34 43 17 3 22 -2 22 -17 0 -35 -30 -224
-39 -251 -5 -14 -12 -46 -15 -73 -5 -45 -5 -47 14 -37 12 6 19 16 18 23 -1 7
3 27 11 45 13 30 17 32 65 34 68 2 237 -2 311 -7 l60 -4 -55 15 c-36 9 -100
14 -185 13 -191 -1 -189 -1 -177 14 6 7 30 70 52 140 l42 126 116 -5 c65 -3
135 -12 157 -20 22 -7 50 -14 62 -14 30 0 155 -40 169 -54 14 -13 39 -89 65
-194 29 -119 31 -116 -48 -87 -113 43 -190 56 -316 56 -66 0 -133 -4 -150 -10
-18 -5 -52 -12 -77 -16 -25 -3 -56 -12 -70 -20 l-25 -14 35 -1 35 -1 -35 -30
c-19 -16 -55 -44 -79 -61 -76 -54 -23 -45 144 25 33 13 77 27 97 30 l37 6 -6
-46 c-6 -45 -6 -46 20 -39 33 8 57 -2 57 -24 0 -26 -26 -43 -55 -36 -30 8 -32
-4 -10 -89 14 -52 63 -133 87 -143 4 -2 8 -12 8 -22 0 -15 10 -20 45 -26 25
-3 61 -3 81 1 46 8 109 58 133 105 18 34 22 50 36 133 5 34 9 37 28 31 19 -6
20 -5 9 9 -13 15 -24 67 -15 67 21 0 63 -35 65 -53 2 -41 3 -44 16 -60 8 -9
13 -26 11 -39 -1 -13 3 -36 9 -51 7 -16 13 -45 14 -65 1 -34 18 97 20 161 1
34 13 34 34 1 15 -22 16 -42 9 -157 -4 -73 -9 -154 -10 -182 -2 -27 -8 -77
-14 -110 -23 -127 -8 -90 94 228 44 136 57 115 38 -58 -19 -170 -31 -266 -37
-310 l-6 -40 20 40 c11 22 20 45 20 51 0 6 12 38 26 70 42 96 110 266 123 309
7 22 18 56 26 75 7 19 16 44 19 54 17 51 29 -17 42 -226 7 -122 14 -236 14
-251 0 -16 4 -26 9 -23 4 3 18 77 31 166 13 88 26 158 28 155 3 -3 8 -22 11
-42 4 -21 11 -37 16 -36 6 1 20 32 32 70 25 80 26 76 13 -86 -10 -131 -7 -171
16 -171 10 0 13 7 8 25 -8 32 13 155 38 227 18 50 25 59 56 69 20 7 47 22 60
34 14 13 36 29 49 36 23 13 27 11 49 -16 13 -17 24 -36 24 -42 0 -7 5 -13 10
-13 13 0 13 -137 0 -143 -6 -3 -5 -4 2 -3 15 3 22 81 13 144 -4 26 -17 55 -34
74 -25 28 -31 30 -69 23 -26 -4 -58 -20 -84 -41 -22 -19 -50 -40 -60 -45 -18
-10 -19 -8 -13 23 16 79 28 108 46 108 9 0 41 11 71 25 88 41 160 30 196 -30
22 -38 23 -46 18 -190 -4 -102 -11 -164 -23 -195 -19 -51 -87 -157 -135 -211
-18 -20 -59 -66 -91 -103 -34 -38 -70 -69 -85 -73 -15 -3 -37 -13 -50 -21 -14
-9 -35 -13 -57 -9 -25 4 -40 1 -52 -11 -9 -9 -32 -17 -51 -17 -37 0 -48 -15
-187 -243 -44 -72 -22 -66 39 11 16 20 36 37 43 37 19 0 27 -25 15 -46 -11
-20 -4 -56 10 -48 6 4 9 -6 8 -22 -4 -53 -1 -71 9 -55 7 11 11 10 20 -7 6 -11
11 -25 11 -31 0 -10 35 -51 44 -51 2 0 6 16 8 35 2 19 2 35 -2 35 -3 0 -5 33
-6 73 0 39 -2 89 -5 109 -5 48 12 54 23 8 5 -19 12 -42 15 -50 9 -20 31 -131
43 -209 5 -36 14 -69 20 -75 5 -5 10 -21 10 -34 0 -52 64 -310 91 -366 10 -22
19 -41 19 -42 0 -1 -48 1 -106 4 -99 5 -263 -7 -394 -29 -30 -5 -95 -16 -145
-24 -224 -37 -418 -109 -485 -180 -21 -22 -23 -33 -21 -109 0 -48 -3 -87 -9
-91 -17 -11 -11 -71 15 -144 14 -39 28 -95 31 -124 l5 -52 -25 65 c-13 36 -34
99 -46 140 -36 125 -54 173 -68 178 -11 3 -11 -2 1 -24 8 -16 27 -78 41 -137
15 -60 36 -131 46 -158 34 -85 62 -247 65 -379 3 -133 -2 -126 -29 40 -38 230
-96 477 -123 518 -13 20 -20 23 -54 17 -26 -5 -45 -3 -54 5 -19 16 -19 71 0
96 14 18 14 17 15 -13 0 -38 9 -41 35 -13 15 17 16 20 3 20 -10 0 -18 12 -21
33 -2 17 -18 86 -35 153 -17 66 -34 140 -37 165 l-6 44 16 -28 c9 -15 21 -25
27 -21 7 4 8 -2 3 -17 -4 -17 -3 -20 3 -10 6 8 15 10 23 6 9 -6 11 -4 6 7 -3
10 0 15 11 14 8 0 23 13 31 29 9 17 19 32 24 33 4 2 7 10 7 17 0 7 11 20 24
28 13 9 28 30 34 46 11 31 11 31 -24 31 -47 0 -43 16 7 24 22 3 57 17 79 31
21 13 51 27 67 31 15 3 39 13 52 21 12 8 32 13 42 10 10 -3 17 -2 15 2 -3 4
47 38 110 75 63 37 114 71 114 76 0 4 10 11 23 14 25 7 108 76 91 76 -6 0 -27
-11 -46 -24 -138 -93 -472 -269 -546 -287 -26 -7 -51 -15 -57 -20 -5 -4 -48
-17 -95 -29 -47 -12 -128 -35 -180 -51 -52 -17 -127 -33 -166 -36 l-71 -6 -61
64 c-33 35 -136 152 -229 260 -93 108 -175 202 -182 210 -58 66 -211 348 -211
391 0 10 -7 37 -15 62 -9 25 -20 75 -25 113 -5 37 -19 122 -30 188 -40 226
-48 300 -29 245 8 -25 8 -20 -7 180 -7 89 -4 93 25 39 27 -50 44 -49 26 1 -25
72 -20 105 20 129 19 11 50 23 69 27 l35 6 -6 -51 c-6 -54 -1 -61 29 -34 17
15 20 15 34 1 11 -10 14 -23 9 -37 -6 -18 -12 -21 -36 -16 -22 5 -29 3 -29 -8
0 -33 39 -138 67 -179 16 -23 32 -50 35 -59 4 -10 22 -22 41 -28 87 -29 150
48 149 181 -1 38 -4 78 -7 89 -7 20 -6 20 24 4 27 -13 32 -14 37 -1 6 17 -26
80 -58 116 -53 57 -204 106 -301 97 l-59 -5 5 71 c7 92 24 169 40 179 6 5 50
7 97 6 73 -3 89 -6 113 -27 21 -19 27 -33 27 -65 1 -51 15 -115 29 -129 8 -8
10 13 5 77 -7 87 -7 88 14 81 28 -8 28 6 2 23 -20 12 -20 19 -14 100 7 93 20
136 34 111 4 -8 19 -99 34 -204z m686 205 c0 -5 -5 -10 -11 -10 -5 0 -7 5 -4
10 3 6 8 10 11 10 2 0 4 -4 4 -10z m415 -10 c3 -5 1 -10 -4 -10 -6 0 -11 5
-11 10 0 6 2 10 4 10 3 0 8 -4 11 -10z m2375 -15 c14 -19 14 -19 -2 -6 -10 7
-18 18 -18 24 0 6 1 8 3 6 1 -2 9 -13 17 -24z m-2163 -67 c-3 -7 -5 -2 -5 12
0 14 2 19 5 13 2 -7 2 -19 0 -25z m69 -44 c-3 -8 1 -25 9 -37 9 -14 16 -61 19
-132 5 -107 5 -109 -8 -55 -19 78 -36 194 -36 238 1 31 2 34 11 19 6 -10 8
-25 5 -33z m441 -6 c-3 -7 -5 -2 -5 12 0 14 2 19 5 13 2 -7 2 -19 0 -25z
m-289 -252 c4 -99 4 -203 1 -231 -8 -64 -10 -33 -14 145 -1 74 -5 182 -8 240
-5 78 -4 95 3 66 6 -21 14 -120 18 -220z m-2009 198 c-9 -11 -15 -12 -23 -4
-8 8 -7 13 4 20 20 12 33 1 19 -16z m3588 -21 c-3 -10 -5 -2 -5 17 0 19 2 27
5 18 2 -10 2 -26 0 -35z m-1300 -5 c-3 -7 -5 -2 -5 12 0 14 2 19 5 13 2 -7 2
-19 0 -25z m-2203 -90 c-4 -62 -11 -117 -16 -123 -7 -7 -9 26 -5 95 4 95 12
140 23 140 3 0 1 -51 -2 -112z m-647 70 c-3 -8 -6 -5 -6 6 -1 11 2 17 5 13 3
-3 4 -12 1 -19z m2710 -10 c-3 -8 -6 -5 -6 6 -1 11 2 17 5 13 3 -3 4 -12 1
-19z m1522 -81 c-10 -73 -9 -95 4 -150 16 -64 40 -238 33 -244 -8 -8 -36 80
-36 111 0 19 -7 71 -16 117 -14 77 -14 89 2 170 10 49 20 87 22 85 2 -2 -2
-42 -9 -89z m-1391 -29 c-5 -107 -14 -143 -53 -233 -8 -16 -19 -45 -25 -62
-12 -33 -30 -45 -30 -20 0 6 12 55 26 107 47 176 74 285 74 303 0 9 3 17 6 17
4 0 4 -51 2 -112z m1339 30 c-3 -7 -5 -2 -5 12 0 14 2 19 5 13 2 -7 2 -19 0
-25z m-3579 -129 c-19 -12 -23 66 -6 116 l13 40 3 -74 c2 -53 -1 -77 -10 -82z
m1937 -57 c-13 -13 -31 21 -27 50 l5 33 14 -39 c7 -22 11 -41 8 -44z m126 11
c-8 -15 -10 -15 -11 -2 0 17 10 32 18 25 2 -3 -1 -13 -7 -23z m-2321 -81 c-15
-102 -10 -119 20 -59 21 41 25 44 36 29 9 -12 11 -57 6 -175 -3 -95 -1 -162 4
-165 9 -6 28 -91 41 -182 3 -19 12 -41 21 -47 9 -7 11 -13 4 -13 -6 0 -9 -7
-6 -15 4 -8 9 -13 13 -11 3 2 6 -13 5 -34 0 -28 3 -37 13 -33 9 4 11 0 7 -11
-3 -9 -1 -16 5 -16 6 0 11 -6 11 -13 0 -8 11 -24 25 -37 14 -13 29 -40 34 -59
13 -51 25 -321 15 -321 -11 0 -30 43 -39 90 -4 19 -16 62 -26 94 -18 57 -27
96 -50 231 -6 33 -18 67 -26 75 -14 13 -14 9 -9 -45 4 -33 18 -107 33 -165 17
-71 22 -105 14 -108 -21 -7 -3 -50 85 -199 19 -32 19 -33 0 -50 -13 -13 -20
-15 -23 -6 -3 9 -10 10 -21 4 -9 -5 -42 -14 -73 -21 -60 -13 -72 -12 -238 34
-51 15 -110 27 -131 28 -45 1 -107 -32 -165 -91 -22 -22 -50 -40 -61 -41 -32
0 -44 -22 -41 -73 2 -43 1 -47 -20 -47 -12 0 -41 10 -64 22 -40 21 -41 22 -21
37 32 25 31 53 -2 69 -16 8 -31 22 -33 32 -3 10 -15 22 -28 28 -15 7 -25 23
-29 48 -12 59 20 108 119 186 16 12 59 25 113 34 61 10 111 27 169 55 88 44
121 46 185 13 20 -11 34 -11 55 -3 15 6 48 7 75 4 34 -5 48 -3 48 5 0 6 -16
91 -36 188 -35 175 -35 179 -30 372 3 128 2 169 -3 119 -5 -42 -11 -81 -15
-87 -12 -20 -66 -321 -75 -422 -8 -86 -9 -61 -6 145 5 268 27 481 55 520 4 6
10 23 14 38 11 46 48 139 53 134 2 -3 -1 -41 -7 -85z m153 -19 c42 -138 51
-179 43 -198 -3 -10 -9 -16 -11 -13 -10 10 -75 254 -75 281 0 40 18 11 43 -70z
m1636 -131 c29 -3 47 1 52 10 7 10 9 10 9 1 0 -7 9 -13 20 -13 11 0 20 -6 20
-14 0 -8 6 -16 12 -18 25 -9 -20 -57 -64 -68 -65 -18 -101 -7 -127 40 l-22 40
26 0 c23 0 25 3 20 23 -3 12 -3 18 2 12 4 -5 28 -11 52 -13z m-2060 -98 c-37
-140 -47 -171 -48 -146 -2 47 54 241 66 229 2 -2 -6 -39 -18 -83z m4237 -19
c4 -28 3 -27 -16 10 -11 22 -19 54 -19 70 0 29 0 29 15 -10 9 -22 18 -53 20
-70z m-3396 82 c3 0 13 3 24 8 23 10 42 -15 22 -30 -10 -7 -10 -15 -2 -27 8
-13 6 -22 -9 -38 -43 -48 -125 3 -110 69 6 30 9 32 38 25 18 -3 34 -6 37 -7z
m3330 -57 c23 -23 71 -117 90 -174 11 -35 11 -41 -5 -52 -28 -21 -119 -37
-160 -30 l-37 7 7 62 c7 63 30 158 47 190 12 22 33 22 58 -3z m-3793 -22 c-3
-8 -6 -5 -6 6 -1 11 2 17 5 13 3 -3 4 -12 1 -19z m3608 -148 c-3 -52 -8 -96
-10 -99 -3 -2 -5 54 -4 125 0 96 3 121 10 99 5 -16 7 -73 4 -125z m485 55 c0
-54 -4 -86 -12 -91 -6 -4 -34 -6 -62 -5 -40 2 -54 7 -72 28 -22 26 -44 92 -44
132 0 23 23 28 123 23 l67 -4 0 -83z m-429 19 c-9 -28 -9 -29 -10 -3 -1 14 2
29 6 32 11 12 13 2 4 -29z m-2714 -56 c-3 -8 -6 -5 -6 6 -1 11 2 17 5 13 3 -3
4 -12 1 -19z m-880 -140 c-3 -8 -6 -5 -6 6 -1 11 2 17 5 13 3 -3 4 -12 1 -19z
m-520 -40 c-3 -7 -5 -2 -5 12 0 14 2 19 5 13 2 -7 2 -19 0 -25z m3720 -115
c-2 -76 -10 -149 -15 -163 -10 -24 -11 -24 -11 10 -1 49 22 290 27 290 3 0 2
-62 -1 -137z m330 -20 c-3 -10 -5 -2 -5 17 0 19 2 27 5 18 2 -10 2 -26 0 -35z
m-3397 -279 c12 -27 28 -62 35 -79 8 -16 23 -51 34 -77 12 -26 21 -54 21 -62
0 -8 4 -16 10 -18 13 -4 24 -234 12 -242 -10 -6 -16 7 -50 109 -65 196 -102
356 -101 436 1 69 2 71 9 28 4 -25 18 -68 30 -95z m3890 31 c0 -88 -1 -95 -20
-95 -10 0 -24 9 -30 20 -6 12 -22 25 -36 30 -29 12 -32 45 -4 60 24 13 27 35
4 26 -9 -3 -20 -3 -25 0 -16 9 12 35 31 29 9 -3 23 1 30 10 7 8 21 15 31 15
17 0 19 -9 19 -95z m-4887 57 c-2 -10 -13 -18 -24 -19 -23 -2 -24 2 -1 25 20
22 32 19 25 -6z m4614 -157 c9 -16 29 -46 44 -65 19 -22 29 -46 29 -68 0 -30
5 -35 48 -53 26 -11 71 -28 99 -37 l53 -17 0 -277 c0 -274 0 -278 -21 -278
-11 0 -41 -8 -67 -19 -26 -10 -78 -30 -115 -45 -38 -15 -87 -41 -109 -59 -47
-38 -76 -37 -128 2 -45 34 -139 95 -165 106 -11 5 -31 9 -45 10 -25 2 -92 12
-142 21 -21 4 -28 11 -28 30 0 13 6 24 13 24 8 0 22 15 32 33 9 18 31 39 47
46 16 7 34 24 40 37 6 13 15 24 20 24 4 0 8 18 8 40 0 22 4 40 9 40 18 0 22
40 7 62 -9 12 -16 33 -16 45 0 13 -20 62 -45 110 -24 49 -46 99 -49 113 -2 14
-7 41 -10 60 -11 62 20 83 144 100 47 6 96 16 110 22 25 11 141 26 193 24 22
0 33 -8 44 -31z m-1452 -104 c-9 -16 -25 -3 -18 15 4 10 9 12 15 6 6 -6 7 -15
3 -21z m542 -88 c-2 -21 -4 -6 -4 32 0 39 2 55 4 38 2 -18 2 -50 0 -70z
m-2521 -50 c15 -21 31 -40 34 -43 3 -3 18 -20 33 -38 25 -31 27 -40 27 -129 0
-70 -3 -94 -12 -91 -7 3 -18 22 -24 44 -6 22 -30 80 -53 128 -42 89 -62 166
-43 166 5 0 22 -17 38 -37z m2425 -616 c34 -15 66 -43 58 -51 -2 -2 -148 -7
-324 -11 -398 -8 -525 -27 -760 -112 -110 -39 -108 -38 -101 -87 8 -48 33
-263 46 -391 5 -49 10 -141 10 -202 l0 -113 -34 -14 c-38 -16 -76 -53 -76 -74
0 -8 9 -16 20 -19 11 -3 20 -9 20 -12 0 -12 -49 -55 -55 -49 -3 3 -10 72 -14
154 -10 156 -22 269 -46 419 -8 50 -17 132 -20 183 -3 52 -8 107 -12 123 -5
24 0 35 31 63 84 79 440 179 731 206 156 14 482 6 526 -13z m927 -179 c7 -7
12 -8 12 -4 0 5 20 -8 44 -28 35 -29 55 -37 102 -42 33 -3 89 -17 127 -31 64
-24 67 -26 67 -58 0 -23 -10 -44 -37 -75 -42 -46 -80 -59 -169 -54 -27 1 -134
5 -239 9 -165 5 -192 9 -209 24 -25 26 -14 51 37 89 23 16 70 58 104 91 34 34
66 61 72 61 5 0 11 7 15 15 7 18 57 20 74 3z m-2449 -86 c0 -15 -6 -45 -13
-67 l-13 -40 -14 33 -14 33 -37 -31 c-20 -18 -48 -51 -62 -74 -23 -39 -24 -50
-22 -157 2 -62 2 -89 0 -59 -2 30 -8 85 -14 122 -13 76 -11 81 57 171 45 58
109 110 125 101 4 -3 8 -17 7 -32z m2095 -218 c9 -23 2 -28 -29 -20 -14 4 -25
13 -25 21 0 21 46 19 54 -1z m-4934 -16 c0 -5 -4 -6 -10 -3 -5 3 -19 1 -30 -5
-21 -11 -23 -10 -14 13 6 15 54 11 54 -5z m592 -103 c28 -11 11 -24 -28 -21
-40 4 -54 14 -36 25 14 9 39 7 64 -4z m2142 -82 c-17 -55 -21 -61 -30 -40 -8
22 15 87 31 87 11 0 11 -8 -1 -47z m-77 -60 c-3 -10 -5 -4 -5 12 0 17 2 24 5
18 2 -7 2 -21 0 -30z m2977 -219 c3 -9 6 -34 6 -56 0 -32 -3 -39 -17 -36 -13
3 -17 11 -15 28 2 14 3 37 3 53 0 30 13 36 23 11z"/>
<path d="M2821 3461 c-19 -12 4 -24 30 -16 17 6 19 9 8 16 -17 11 -21 11 -38
0z"/>
<path d="M2001 3406 c14 -7 39 -16 55 -19 41 -7 102 -31 116 -45 7 -7 16 -12
20 -12 13 0 9 40 -4 44 -40 11 -196 46 -204 46 -5 0 3 -6 17 -14z"/>
<path d="M4413 2950 c-13 -5 -23 -18 -23 -28 0 -29 -10 -33 -33 -12 -24 23
-36 18 -16 -6 16 -20 30 -162 18 -185 -5 -9 -26 -24 -48 -32 -48 -20 -73 -51
-62 -81 9 -22 33 -24 75 -5 16 7 12 8 -16 4 -40 -6 -53 4 -43 35 4 14 19 22
47 26 22 4 49 16 60 28 18 19 19 30 14 99 -3 42 -1 77 3 77 5 0 24 -18 41 -40
44 -56 50 -42 10 21 -27 41 -31 52 -19 60 21 13 52 11 77 -7 30 -21 28 0 -3
31 -25 26 -45 30 -82 15z"/>
<path d="M2450 2030 c0 -6 7 -10 15 -10 8 0 15 2 15 4 0 2 -7 6 -15 10 -8 3
-15 1 -15 -4z"/>
<path d="M2739 1989 c-9 -6 8 -9 45 -9 33 0 57 2 55 4 -10 9 -88 13 -100 5z"/>
<path d="M3407 1515 c6 -18 34 -16 41 3 2 7 -6 12 -22 12 -19 0 -24 -4 -19
-15z"/>
<path d="M3503 1523 c-13 -2 -23 -9 -23 -14 0 -14 26 -11 40 6 7 8 11 14 9 14
-2 -1 -14 -4 -26 -6z"/>
<path d="M1597 3153 c-4 -3 -7 -54 -6 -112 0 -58 2 -101 4 -96 3 9 12 215 9
215 0 0 -4 -3 -7 -7z"/>
<path d="M1592 2500 c0 -14 2 -19 5 -12 2 6 2 18 0 25 -3 6 -5 1 -5 -13z"/>
<path d="M1602 2450 c0 -14 2 -19 5 -12 2 6 2 18 0 25 -3 6 -5 1 -5 -13z"/>
<path d="M1613 2408 c3 -9 9 -44 13 -77 5 -48 11 -64 30 -76 l23 -15 -15 48
c-9 26 -21 64 -27 84 -7 20 -16 40 -21 45 -5 4 -7 1 -3 -9z"/>
<path d="M3390 3030 c0 -5 5 -10 11 -10 5 0 7 5 4 10 -3 6 -8 10 -11 10 -2 0
-4 -4 -4 -10z"/>
<path d="M2678 5673 c7 -3 16 -2 19 1 4 3 -2 6 -13 5 -11 0 -14 -3 -6 -6z"/>
<path d="M3380 5629 c0 -7 16 -8 48 -3 64 9 66 14 4 14 -30 0 -52 -4 -52 -11z"/>
<path d="M2590 5610 c-19 -4 -49 -12 -67 -18 -17 -6 -34 -8 -37 -5 -3 3 -17 2
-33 -1 -19 -5 -23 -10 -14 -15 10 -6 7 -13 -10 -26 l-24 -17 35 7 c19 4 46 13
60 20 14 7 41 15 60 19 19 3 58 15 85 26 49 19 50 19 15 18 -19 0 -51 -4 -70
-8z"/>
<path d="M3630 5580 c8 -5 26 -9 40 -9 23 0 23 1 5 9 -11 5 -29 9 -40 9 -17 1
-17 -1 -5 -9z"/>
<path d="M4010 5576 c0 -2 9 -6 20 -9 11 -3 18 -1 14 4 -5 9 -34 13 -34 5z"/>
<path d="M3693 5545 c0 -10 6 -13 19 -9 13 4 27 -4 45 -25 26 -29 53 -41 53
-23 0 4 -15 22 -33 40 -35 34 -84 44 -84 17z"/>
<path d="M3320 5511 c0 -5 9 -7 20 -4 11 3 20 7 20 9 0 2 -9 4 -20 4 -11 0
-20 -4 -20 -9z"/>
<path d="M3222 5361 c-14 -46 -15 -64 -3 -57 10 7 26 85 19 92 -3 2 -10 -13
-16 -35z"/>
<path d="M3682 5350 c0 -14 2 -19 5 -12 2 6 2 18 0 25 -3 6 -5 1 -5 -13z"/>
<path d="M2824 5152 c4 -7 2 -13 -3 -13 -6 -1 -16 -2 -21 -3 -14 -1 -100 -85
-100 -96 0 -5 -6 -13 -13 -17 -8 -4 -17 -16 -20 -26 -6 -15 -3 -17 13 -12 16
5 20 2 20 -15 0 -32 20 -20 46 29 12 24 39 61 58 83 37 41 44 62 24 74 -7 4
-8 3 -4 -4z"/>
<path d="M2275 4971 c-3 -12 -10 -21 -15 -21 -4 0 -10 -7 -14 -15 -3 -8 -1
-15 4 -15 11 0 44 60 37 67 -3 2 -8 -5 -12 -16z"/>
<path d="M2666 4951 c-4 -7 -5 -15 -2 -18 9 -9 19 4 14 18 -4 11 -6 11 -12 0z"/>
<path d="M2998 4930 c-15 -30 -16 -31 -21 -9 -6 23 -21 19 -22 -4 -2 -32 -48
-158 -66 -179 l-20 -23 6 63 c6 62 6 63 -15 52 -31 -17 -43 -3 -37 44 l6 41
-26 -42 c-14 -24 -31 -43 -38 -43 -6 0 -24 -11 -39 -25 -18 -17 -26 -20 -26
-10 0 29 -26 14 -57 -33 -18 -26 -33 -52 -33 -58 0 -6 -11 -31 -23 -55 -13
-24 -27 -56 -30 -71 -4 -14 -10 -34 -13 -45 -4 -11 0 -9 12 7 10 14 25 32 34
40 9 8 22 35 30 60 18 61 25 66 25 20 0 -22 -3 -40 -6 -40 -3 0 -5 -27 -4 -59
1 -45 -2 -58 -12 -54 -16 6 -16 4 -2 -36 6 -17 16 -31 21 -31 7 0 6 5 -1 14
-9 10 -8 15 2 19 7 3 24 32 37 66 14 34 28 61 32 61 5 0 8 10 8 23 1 27 52
104 65 97 6 -3 10 -12 9 -20 -2 -25 -46 -194 -55 -212 -5 -10 -9 -30 -9 -45 0
-27 1 -27 23 12 12 22 30 41 40 43 14 3 17 -5 18 -45 l0 -48 20 60 c11 33 26
74 33 90 8 17 22 50 31 75 9 25 21 54 25 65 5 11 11 27 13 35 3 8 6 1 6 -17 1
-17 -8 -60 -19 -95 -11 -34 -20 -70 -20 -78 0 -29 27 37 49 120 13 47 26 90
30 95 9 13 28 76 41 139 13 59 0 81 -22 36z m-168 -129 c0 -6 -4 -13 -10 -16
-5 -3 -10 1 -10 9 0 9 5 16 10 16 6 0 10 -4 10 -9z m-130 -35 c0 -2 -7 -9 -15
-16 -12 -10 -15 -10 -15 4 0 9 7 16 15 16 8 0 15 -2 15 -4z"/>
<path d="M1386 4485 c-9 -14 -13 -25 -8 -25 5 0 14 11 20 25 6 14 10 25 8 25
-2 0 -11 -11 -20 -25z"/>
<path d="M1346 4429 c-10 -10 -16 -24 -14 -31 3 -8 11 -3 23 15 21 33 17 41
-9 16z"/>
<path d="M2034 4402 c-6 -4 -16 -26 -21 -50 -9 -36 -9 -41 2 -32 14 12 40 78
33 85 -2 2 -8 1 -14 -3z"/>
<path d="M2861 4394 c0 -11 3 -14 6 -6 3 7 2 16 -1 19 -3 4 -6 -2 -5 -13z"/>
<path d="M1977 4261 c-18 -30 -57 -180 -57 -218 0 -65 37 20 80 186 14 53 1
72 -23 32z"/>
<path d="M2832 4255 c0 -16 2 -22 5 -12 2 9 2 23 0 30 -3 6 -5 -1 -5 -18z"/>
<path d="M2682 4207 c-6 -7 -13 -68 -15 -135 -3 -68 -8 -126 -11 -129 -10 -10
-7 -63 3 -63 5 0 11 6 14 13 2 6 4 -4 4 -23 0 -19 -2 -27 -4 -17 -7 26 -23 20
-23 -8 0 -14 -4 -25 -8 -25 -11 0 -31 -211 -22 -229 4 -7 10 -10 13 -5 7 12
43 166 52 224 4 24 11 51 15 60 10 18 51 237 50 265 -1 14 -8 6 -24 -24 -19
-36 -24 -40 -30 -26 -4 10 -4 45 0 77 7 59 4 67 -14 45z m-5 -209 c-3 -8 -6
-5 -6 6 -1 11 2 17 5 13 3 -3 4 -12 1 -19z"/>
<path d="M1206 4152 c-38 -64 -48 -90 -18 -51 32 42 64 100 59 105 -3 3 -21
-22 -41 -54z"/>
<path d="M1233 4107 c-95 -164 -193 -356 -193 -378 0 -5 11 -7 25 -3 26 6 85
-12 97 -30 4 -6 5 -31 3 -56 -4 -41 -3 -40 10 15 8 33 26 125 40 205 14 80 35
178 46 218 11 40 19 79 17 87 -2 8 -22 -18 -45 -58z"/>
<path d="M1499 4159 c0 -2 -7 -31 -16 -64 -8 -33 -16 -82 -18 -110 -2 -27 -1
-39 1 -25 3 14 14 63 25 109 11 46 17 86 14 89 -3 3 -5 3 -6 1z"/>
<path d="M2371 3664 c0 -11 3 -14 6 -6 3 7 2 16 -1 19 -3 4 -6 -2 -5 -13z"/>
<path d="M0 3440 l0 -110 33 -2 c17 -1 41 -1 52 0 88 5 135 2 153 -9 17 -11
25 -11 48 1 22 12 28 13 32 2 2 -8 10 -3 18 14 8 15 13 33 10 40 -2 6 2 21 10
32 13 19 11 22 -59 47 -39 15 -85 33 -102 40 -16 8 -46 17 -65 21 -19 3 -44
13 -55 20 -11 8 -32 14 -47 14 l-28 0 0 -110z"/>
<path d="M1362 3405 c0 -16 2 -22 5 -12 2 9 2 23 0 30 -3 6 -5 -1 -5 -18z"/>
<path d="M1565 110 c-3 -5 -1 -10 4 -10 6 0 11 5 11 10 0 6 -2 10 -4 10 -3 0
-8 -4 -11 -10z"/>
<path d="M1460 40 c0 -18 4 -29 10 -25 6 3 10 15 10 25 0 10 -4 22 -10 25 -6
4 -10 -7 -10 -25z"/>
</g>
</svg>
