<?xml version="1.0" standalone="no"?>
<!DOCTYPE svg PUBLIC "-//W3C//DTD SVG 20010904//EN"
 "http://www.w3.org/TR/2001/REC-SVG-20010904/DTD/svg10.dtd">
<svg version="1.0" xmlns="http://www.w3.org/2000/svg"
 width="348.000000pt" height="348.000000pt" viewBox="0 0 348.000000 348.000000"
 preserveAspectRatio="xMidYMid meet">

<g transform="translate(0.000000,348.000000) scale(0.100000,-0.100000)"
fill="#000000" stroke="none">
<path d="M1490 2664 c-129 -29 -345 -79 -480 -109 -135 -31 -255 -59 -267 -62
l-23 -5 0 -583 0 -583 138 -80 c75 -44 298 -172 494 -286 196 -113 364 -209
372 -212 10 -4 210 106 521 286 l505 292 0 583 0 583 -26 6 c-14 4 -204 47
-422 96 -218 50 -434 99 -479 110 -45 11 -86 20 -90 19 -4 -1 -114 -25 -243
-55z m1040 -870 c-34 -175 -63 -321 -65 -324 -6 -9 -85 -44 -88 -39 -2 2 -21
77 -42 166 -22 90 -42 160 -46 155 -3 -4 -18 -70 -33 -147 -56 -285 -51 -272
-107 -300 -27 -14 -49 -23 -49 -21 0 2 -34 136 -76 296 -41 161 -74 293 -72
294 2 1 25 11 53 22 27 10 53 20 56 22 7 3 14 -26 69 -271 12 -54 24 -97 26
-94 2 2 22 93 44 203 22 109 42 208 44 219 3 13 21 26 49 37 l44 16 37 -162
c21 -88 40 -170 43 -181 4 -11 23 74 44 190 21 116 38 211 38 213 2 8 86 38
89 31 2 -4 -24 -150 -58 -325z m-1322 204 c42 -22 132 -109 132 -130 0 -5 -12
-24 -26 -42 l-27 -33 -51 54 c-53 54 -83 65 -106 38 -22 -26 -2 -63 86 -155
108 -115 138 -174 132 -266 -3 -49 -9 -69 -28 -89 -57 -61 -185 -7 -274 114
-20 27 -36 53 -36 57 0 5 12 22 27 38 l25 30 21 -30 c61 -84 127 -124 152 -90
23 30 3 68 -82 158 -101 106 -122 148 -123 240 0 57 4 71 26 97 21 25 33 31
66 31 23 0 61 -10 86 -22z"/>
</g>
</svg>
